<svg id="Layer_1" data-name="Layer 1" xmlns="http://www.w3.org/2000/svg" viewBox="0 0 101 101"><title>Artboard 2 copy 10</title><path d="M86.5,21h-71A6.51,6.51,0,0,0,9,27.5v32A6.51,6.51,0,0,0,15.5,66h71A6.51,6.51,0,0,0,93,59.5v-32A6.51,6.51,0,0,0,86.5,21ZM81,39H21V33H81ZM21,42H81v6H21ZM81,30H21V24H81Zm9,29.5A3.5,3.5,0,0,1,86.5,63h-71A3.5,3.5,0,0,1,12,59.5v-32A3.5,3.5,0,0,1,15.5,24H18V49.5A1.5,1.5,0,0,0,19.5,51h63A1.5,1.5,0,0,0,84,49.5V24h2.5A3.5,3.5,0,0,1,90,27.5Z"/><path d="M36.3,73.25a1.5,1.5,0,0,0-2-.55L30,75.15V70.5a1.5,1.5,0,0,0-3,0v4.65L22.75,72.7a1.5,1.5,0,0,0-1.5,2.6l4.25,2.45L21.25,80.2a1.5,1.5,0,1,0,1.5,2.6L27,80.35V85.5a1.5,1.5,0,0,0,3,0V80.35l4.25,2.45a1.5,1.5,0,0,0,1.5-2.6L31.5,77.75l4.25-2.45A1.5,1.5,0,0,0,36.3,73.25Z"/><path d="M80.3,73.25a1.5,1.5,0,0,0-2-.55L74,75.15V70.5a1.5,1.5,0,0,0-3,0v4.65L66.75,72.7a1.5,1.5,0,0,0-1.5,2.6l4.25,2.45L65.25,80.2a1.5,1.5,0,1,0,1.5,2.6L71,80.35V85.5a1.5,1.5,0,0,0,3,0V80.35l4.25,2.45a1.5,1.5,0,0,0,1.5-2.6L75.5,77.75l4.25-2.45A1.5,1.5,0,0,0,80.3,73.25Z"/><path d="M58.3,85.5a1.5,1.5,0,0,0-2-.55L52,87.4V82.5a1.5,1.5,0,0,0-3,0v4.9l-4.25-2.45a1.5,1.5,0,0,0-1.5,2.6L47.5,90l-4.25,2.45a1.5,1.5,0,1,0,1.5,2.6L49,92.6v4.9a1.5,1.5,0,0,0,3,0V92.6l4.25,2.45a1.5,1.5,0,0,0,1.5-2.6L53.5,90l4.25-2.45A1.5,1.5,0,0,0,58.3,85.5Z"/><path d="M20,55a2.41,2.41,0,0,0-.9.37,3.71,3.71,0,0,0-.38.31,3.64,3.64,0,0,0-.31.38,2.54,2.54,0,0,0-.23.43A2.5,2.5,0,0,0,18,57a2.74,2.74,0,0,0,0,.49A2.5,2.5,0,1,0,20,55Z"/></svg>