<svg height="512" viewBox="0 0 64 64" width="512" xmlns="http://www.w3.org/2000/svg"><g id="cabinets-bookcase-books-pail-clean"><path d="m12 30a3 3 0 0 0 2.816-2h8.368a3 3 0 1 0 0-2h-8.368a2.995 2.995 0 1 0 -2.816 4zm14-4a1 1 0 1 1 -1 1 1 1 0 0 1 1-1zm-14 0a1 1 0 1 1 -1 1 1 1 0 0 1 1-1z"/><path d="m26 48a3 3 0 0 0 -2.816 2h-8.368a3 3 0 1 0 0 2h8.368a2.995 2.995 0 1 0 2.816-4zm-14 4a1 1 0 1 1 1-1 1 1 0 0 1 -1 1zm14 0a1 1 0 1 1 1-1 1 1 0 0 1 -1 1z"/><path d="m33 20h-1.86l2.35-2.34a1.008 1.008 0 0 0 0-1.42l-12.73-12.73a1.008 1.008 0 0 0 -1.42 0l-1.34 1.35v-1.86a1 1 0 0 0 -1-1h-12a1 1 0 0 0 -1 1v17.18a3.01 3.01 0 0 0 -2 2.82v34a1 1 0 0 0 1 1h3v3a1 1 0 0 0 1 1h6a1 1 0 0 0 1-1v-3h10v3a1 1 0 0 0 1 1h6a1 1 0 0 0 1-1v-3h3a1 1 0 0 0 1-1v-34a3.009 3.009 0 0 0 -3-3zm-12.95-14.36 11.31 11.31-1.41 1.41-11.31-11.31zm-2.05 3.6 10.76 10.76h-10.76zm-4-5.24h2v16h-2zm-4 0h2v16h-2zm-4 0h2v16h-2zm6 56h-4v-2h4zm18 0h-4v-2h4zm4-4h-30v-10h30zm0-12h-30v-10h30zm0-12h-30v-9a1 1 0 0 1 1-1h28a1 1 0 0 1 1 1z"/><path d="m26 36a3.01 3.01 0 0 0 -2.82 2h-8.36a3 3 0 1 0 0 2h8.36a3 3 0 1 0 2.82-4zm-14 4a1 1 0 1 1 1-1 1 1 0 0 1 -1 1zm14 0a1 1 0 1 1 1-1 1 1 0 0 1 -1 1z"/><path d="m61.74 40.33a1 1 0 0 0 -.74-.33h-1a8 8 0 0 0 -16 0h-1a1 1 0 0 0 -.74.33 1.036 1.036 0 0 0 -.26.77l2 20a1.015 1.015 0 0 0 1 .9h14a1.015 1.015 0 0 0 1-.9l2-20a1.036 1.036 0 0 0 -.26-.77zm-9.74-6.33a6 6 0 0 1 6 6h-12a6 6 0 0 1 6-6zm2 8v8h-4v-8zm4.1 18h-12.2l-1.8-18h3.9v9a1 1 0 0 0 1 1h6a1 1 0 0 0 1-1v-9h3.9z"/><path d="m58 2h2v2h-2z"/><path d="m56 4h2v2h-2z"/><path d="m58 6h2v2h-2z"/><path d="m60 4h2v2h-2z"/><path d="m44 2h2v2h-2z"/><path d="m42 4h2v2h-2z"/><path d="m44 6h2v2h-2z"/><path d="m46 4h2v2h-2z"/><path d="m51 12h2v2h-2z"/><path d="m49 14h2v2h-2z"/><path d="m51 16h2v2h-2z"/><path d="m53 14h2v2h-2z"/><path d="m39 12h2v2h-2z"/><path d="m37 14h2v2h-2z"/><path d="m39 16h2v2h-2z"/><path d="m41 14h2v2h-2z"/><path d="m58 22h2v2h-2z"/><path d="m56 24h2v2h-2z"/><path d="m58 26h2v2h-2z"/><path d="m60 24h2v2h-2z"/><path d="m45 22h2v2h-2z"/><path d="m43 24h2v2h-2z"/><path d="m45 26h2v2h-2z"/><path d="m47 24h2v2h-2z"/></g></svg>