<?xml version="1.0" encoding="UTF-8" standalone="no"?> <svg  viewBox="0 -71 512.001 512"  xmlns="http://www.w3.org/2000/svg"><path d="m341.808594 20c2.632812 0 5.210937-1.070312 7.070312-2.929688 1.859375-1.859374 2.929688-4.441406 2.929688-7.070312s-1.066406-5.210938-2.929688-7.070312c-1.859375-1.859376-4.4375-2.929688-7.070312-2.929688-2.636719 0-5.207032 1.070312-7.066406 2.929688-1.871094 1.859374-2.933594 4.441406-2.933594 7.070312s1.0625 5.210938 2.933594 7.070312c1.859374 1.859376 4.429687 2.929688 7.066406 2.929688zm0 0"/><path d="m459.421875 122.96875c-10.15625 0-18.421875-8.265625-18.421875-18.421875 0-10.160156 8.265625-18.421875 18.421875-18.421875h9.515625c23.746094 0 43.0625-19.320312 43.0625-43.0625s-19.316406-43.0625-43.0625-43.0625h-87.132812c-5.519532 0-10 4.476562-10 10s4.480468 10 10 10h87.132812c12.714844 0 23.0625 10.34375 23.0625 23.0625 0 12.714844-10.347656 23.0625-23.0625 23.0625h-9.515625c-21.1875 0-38.421875 17.234375-38.421875 38.421875s17.234375 38.421875 38.421875 38.421875c17.964844 0 32.578125 14.613281 32.578125 32.578125v70.453125h-38.464844c-16.578125 0-30.0625-13.484375-30.0625-30.0625 0-20.003906-16.277344-36.277344-36.277344-36.277344-12.253906 0-22.222656-9.96875-22.222656-22.222656v-20.9375c0-23.433594-19.066406-42.5-42.5-42.5h-37.5c-5.515625 0-10-4.484375-10-10 0-16.542969-13.460937-30-30-30h-45.335937c-9.371094 0-17-7.625-17-17s7.628906-17 17-17h102.167969c5.523437 0 10-4.476562 10-10s-4.476563-10-10-10h-102.164063c-20.402344 0-37 16.597656-37 37s16.597656 37 37 37h45.332031c5.511719 0 10 4.488281 10 10 0 16.542969 13.457032 30 30 30h37.5c12.40625 0 22.5 10.09375 22.5 22.5v20.9375c0 23.28125 18.941406 42.222656 42.222656 42.222656 8.976563 0 16.277344 7.300782 16.277344 16.277344 0 11.273438 3.746094 21.6875 10.058594 30.0625h-393.53125c-11.027344 0-20 8.972656-20 20v84c0 11.027344 8.972656 20 20 20h472c11.027344 0 20-8.972656 20-20v-84c0-2.050781-.3125-4.03125-.890625-5.894531.566406-1.253907.890625-2.640625.890625-4.105469v-80.453125c0-28.992187-23.585938-52.578125-52.578125-52.578125zm-42.773437 150.472656-10.242188 10.238282c-3.90625 3.90625-3.90625 10.238281 0 14.144531l10.242188 10.242187-10.242188 10.238282c-3.90625 3.90625-3.90625 10.238281 0 14.144531l10.242188 10.242187-7.3125 7.308594h-246.914063v-20h72.078125c5.523438 0 10-4.476562 10-10s-4.476562-10-10-10h-72.078125v-44h246.789063zm-396.648438-7.441406h122.421875v84h-122.421875zm472 84h-54.382812l.242187-.242188c3.90625-3.902343 3.90625-10.234374 0-14.140624l-10.242187-10.242188 10.242187-10.242188c3.90625-3.902343 3.90625-10.234374 0-14.140624l-10.242187-10.242188 10.242187-10.242188c3.90625-3.902343 3.90625-10.234374 0-14.140624l-.367187-.367188h54.507812l.011719 84s-.003907 0-.011719 0zm0 0"/><path d="m274.5 330c2.628906 0 5.210938-1.070312 7.070312-2.929688 1.859376-1.859374 2.929688-4.441406 2.929688-7.070312s-1.070312-5.210938-2.929688-7.070312c-1.859374-1.859376-4.441406-2.929688-7.070312-2.929688s-5.210938 1.070312-7.070312 2.929688c-1.859376 1.859374-2.929688 4.441406-2.929688 7.070312s1.070312 5.210938 2.929688 7.070312c1.859374 1.859376 4.441406 2.929688 7.070312 2.929688zm0 0"/></svg>