<svg height="512pt" viewBox="0 0 512 512" width="512pt" xmlns="http://www.w3.org/2000/svg"><path d="m503.464844 256h-494.929688c-4.714844 0-8.535156 3.816406-8.535156 8.53125v238.933594c0 4.71875 3.820312 8.535156 8.535156 8.535156h494.929688c4.714844 0 8.535156-3.816406 8.535156-8.535156v-238.933594c0-4.714844-3.820312-8.53125-8.535156-8.53125zm-418.132813 204.800781v34.132813h-68.265625v-221.867188h273.066406v25.601563h-42.667968c-4.710938 0-8.53125 3.816406-8.53125 8.53125v42.667969h-42.667969c-4.710937 0-8.535156 3.816406-8.535156 8.535156v42.664062h-42.664063c-4.714844 0-8.535156 3.816406-8.535156 8.535156v42.667969h-42.667969c-4.710937-.003906-8.53125 3.8125-8.53125 8.53125zm409.601563 34.132813h-392.535156v-25.601563h42.667968c4.714844 0 8.535156-3.816406 8.535156-8.53125v-42.667969h42.664063c4.714844 0 8.535156-3.816406 8.535156-8.535156v-42.664062h42.667969c4.710938 0 8.53125-3.816406 8.53125-8.535156v-42.667969h42.667969c4.714843 0 8.535156-3.816407 8.535156-8.53125v-34.132813h187.730469zm0 0"/><path d="m418.132812 375.464844h51.199219c4.714844 0 8.535157-3.816406 8.535157-8.53125v-51.199219c0-4.71875-3.820313-8.535156-8.535157-8.535156h-51.199219c-4.710937 0-8.53125 3.816406-8.53125 8.535156v51.199219c0 4.714844 3.820313 8.53125 8.53125 8.53125zm8.53125-51.199219h34.136719v34.136719h-34.136719zm0 0"/><path d="m418.132812 460.800781h51.199219c4.714844 0 8.535157-3.816406 8.535157-8.535156v-51.199219c0-4.71875-3.820313-8.535156-8.535157-8.535156h-51.199219c-4.710937 0-8.53125 3.816406-8.53125 8.535156v51.199219c0 4.71875 3.820313 8.535156 8.53125 8.535156zm8.53125-51.199219h34.136719v34.132813h-34.136719zm0 0"/><path d="m332.800781 375.464844h51.199219c4.710938 0 8.53125-3.816406 8.53125-8.53125v-51.199219c0-4.71875-3.820312-8.535156-8.53125-8.535156h-51.199219c-4.714843 0-8.535156 3.816406-8.535156 8.535156v51.199219c0 4.714844 3.820313 8.53125 8.535156 8.53125zm8.53125-51.199219h34.132813v34.136719h-34.132813zm0 0"/><path d="m332.800781 460.800781h51.199219c4.710938 0 8.53125-3.816406 8.53125-8.535156v-51.199219c0-4.71875-3.820312-8.535156-8.53125-8.535156h-51.199219c-4.714843 0-8.535156 3.816406-8.535156 8.535156v51.199219c0 4.71875 3.820313 8.535156 8.535156 8.535156zm8.53125-51.199219h34.132813v34.132813h-34.132813zm0 0"/><path d="m139.800781 383.351562c3.1875-1.320312 5.265625-4.433593 5.265625-7.886718v-59.730469c0-4.71875-3.820312-8.535156-8.535156-8.535156h-59.730469c-3.449219 0-6.5625 2.074219-7.882812 5.265625-1.320313 3.191406-.59375 6.859375 1.847656 9.300781l11.035156 11.035156-28.101562 28.097657c-3.332031 3.335937-3.332031 8.734374 0 12.066406l25.601562 25.601562c1.664063 1.667969 3.847657 2.5 6.03125 2.5 2.183594 0 4.367188-.832031 6.035157-2.5l28.097656-28.101562 11.035156 11.035156c2.4375 2.441406 6.105469 3.175781 9.300781 1.851562zm-11.800781-28.484374-2.5-2.5c-3.332031-3.332032-8.734375-3.332032-12.066406 0l-28.097656 28.097656-13.535157-13.53125 28.101563-28.101563c3.332031-3.332031 3.332031-8.730469 0-12.066406l-2.503906-2.5h30.601562zm0 0"/><path d="m119.46875 110.933594v128h17.066406v-34.132813h34.132813v34.132813h17.066406v-34.132813h17.066406v-17.066406h-68.265625v-76.800781zm0 0"/><path d="m307.199219 204.800781h17.066406v34.132813h17.066406v-34.132813h34.132813v34.132813h17.066406v-128h-17.066406v76.800781h-68.265625zm0 0"/><path d="m418.132812 76.800781h68.265626c14.117187 0 25.601562-11.484375 25.601562-25.601562 0-6.925781-2.703125-13.367188-7.453125-17.984375-4.78125-4.914063-11.226563-7.617188-18.148437-7.617188h-1.078126c-3.800781-14.707031-17.179687-25.597656-33.054687-25.597656s-29.253906 10.890625-33.054687 25.601562h-1.078126c-14.117187 0-25.601562 11.480469-25.601562 25.597657 0 6.917969 2.707031 13.359375 7.457031 17.984375 4.777344 4.917968 11.222657 7.617187 18.144531 7.617187zm0-34.132812h8.535157c4.710937 0 8.53125-3.816407 8.53125-8.535157 0-9.40625 7.65625-17.066406 17.066406-17.066406 9.414063 0 17.066406 7.660156 17.066406 17.066406 0 4.71875 3.824219 8.535157 8.535157 8.535157h8.535156c2.277344 0 4.378906.875 6.078125 2.617187 1.582031 1.53125 2.453125 3.640625 2.453125 5.914063 0 4.710937-3.828125 8.535156-8.53125 8.535156h-68.269532c-2.277343 0-4.378906-.875-6.074218-2.609375-1.585938-1.550781-2.457032-3.648438-2.457032-5.925781 0-4.707031 3.828126-8.53125 8.53125-8.53125zm0 0"/><path d="m25.601562 76.800781h68.265626c6.921874 0 13.367187-2.699219 17.988281-7.449219 4.90625-4.785156 7.613281-11.226562 7.613281-18.152343 0-14.117188-11.484375-25.601563-25.601562-25.601563h-1.078126c-3.800781-14.707031-17.179687-25.597656-33.054687-25.597656s-29.253906 10.890625-33.054687 25.601562h-1.078126c-6.921874 0-13.367187 2.699219-17.992187 7.457032-4.90625 4.78125-7.609375 11.226562-7.609375 18.140625 0 14.117187 11.484375 25.601562 25.601562 25.601562zm-5.921874-31.683593c1.542968-1.574219 3.640624-2.449219 5.921874-2.449219h8.53125c4.714844 0 8.535157-3.816407 8.535157-8.535157 0-9.410156 7.652343-17.066406 17.066406-17.066406 9.410156 0 17.066406 7.65625 17.066406 17.066406 0 4.71875 3.820313 8.535157 8.535157 8.535157h8.53125c4.703124 0 8.535156 3.824219 8.535156 8.53125 0 2.273437-.871094 4.382812-2.613282 6.082031-1.542968 1.574219-3.640624 2.453125-5.921874 2.453125h-68.265626c-4.707031 0-8.535156-3.828125-8.535156-8.535156 0-2.273438.871094-4.375 2.613282-6.082031zm0 0"/><path d="m162.132812 59.734375h85.332032v59.730469h17.066406v-59.730469h85.335938c4.015624 0 7.492187-2.800781 8.339843-6.726563.851563-3.925781-1.152343-7.917968-4.8125-9.574218l-93.867187-42.667969c-2.238282-1.015625-4.816406-1.015625-7.058594 0l-93.863281 42.667969c-3.660157 1.65625-5.664063 5.648437-4.8125 9.574218.847656 3.925782 4.324219 6.726563 8.339843 6.726563zm93.867188-41.824219 54.46875 24.757813h-108.9375zm0 0"/><path d="m51.199219 93.867188c0 14.117187-11.484375 25.601562-25.601563 25.601562v17.066406c14.117188 0 25.601563 11.480469 25.601563 25.597656h17.066406c0-14.113281 11.484375-25.597656 25.601563-25.597656v-17.066406c-14.117188 0-25.601563-11.484375-25.601563-25.601562zm8.535156 42.691406c-2.433594-3.242188-5.320313-6.125-8.558594-8.558594 3.238281-2.433594 6.125-5.316406 8.558594-8.558594 2.433594 3.242188 5.320313 6.125 8.558594 8.558594-3.238281 2.433594-6.125 5.316406-8.558594 8.558594zm0 0"/><path d="m443.734375 153.597656c0 14.117188-11.484375 25.601563-25.601563 25.601563v17.066406c14.117188 0 25.601563 11.484375 25.601563 25.601563h17.066406c0-14.117188 11.480469-25.601563 25.597657-25.601563v-17.066406c-14.113282 0-25.597657-11.484375-25.597657-25.601563zm8.53125 42.695313c-2.433594-3.242188-5.320313-6.125-8.558594-8.558594 3.238281-2.433594 6.125-5.316406 8.558594-8.558594 2.433594 3.242188 5.320313 6.125 8.558594 8.558594-3.238281 2.433594-6.125 5.316406-8.558594 8.558594zm0 0"/><path d="m341.332031 76.800781h-17.066406c0 14.113281-11.484375 25.597657-25.601563 25.597657v17.070312c11.109376 0 20.496094 7.152344 24.027344 17.066406h-143.492187v17.066406h68.265625v85.332032h17.066406v-85.332032h68.269531v-8.535156h8.53125c0-14.117187 11.484375-25.597656 25.601563-25.597656v-17.070312c-14.117188 0-25.601563-11.480469-25.601563-25.597657zm-8.53125 42.691407c-2.433593-3.242188-5.320312-6.125-8.558593-8.558594 3.238281-2.433594 6.125-5.316406 8.558593-8.558594 2.433594 3.242188 5.320313 6.125 8.558594 8.558594-3.238281 2.433594-6.125 5.316406-8.558594 8.558594zm0 0"/></svg>