<?xml version="1.0"?>
<svg xmlns="http://www.w3.org/2000/svg" xmlns:xlink="http://www.w3.org/1999/xlink" version="1.1" id="Layer_1" x="0px" y="0px" viewBox="0 0 512 512" style="enable-background:new 0 0 512 512;" xml:space="preserve" width="512px" height="512px" className=""><g><g>
	<g>
		<path d="M468.672,176H347.328C323.44,176,304,195.44,304,219.328v249.344C304,492.56,323.44,512,347.328,512h121.344    C492.56,512,512,492.56,512,468.672V219.328C512,195.44,492.56,176,468.672,176z M480,468.672c0,6.256-5.072,11.328-11.328,11.328    H347.328c-6.256,0-11.328-5.072-11.328-11.328V219.328c0-6.256,5.072-11.328,11.328-11.328h121.344    c6.256,0,11.328,5.072,11.328,11.328V468.672z" data-original="#000000" className="active-path" data-old_color="#000000" fill="#FFFFFF"/>
	</g>
</g><g>
	<g>
		<path d="M496,400H320c-8.848,0-16,7.168-16,16c0,8.832,7.152,16,16,16h176c8.848,0,16-7.168,16-16    C512,407.168,504.848,400,496,400z" data-original="#000000" className="active-path" data-old_color="#000000" fill="#FFFFFF"/>
	</g>
</g><g>
	<g>
		<path d="M419.36,436.64c-5.92-5.92-16.976-5.92-22.72,0c-2.896,3.04-4.64,7.2-4.64,11.36c0,4.16,1.744,8.32,4.64,11.36    c3.024,2.88,7.2,4.64,11.36,4.64c4.16,0,8.32-1.76,11.36-4.64c2.88-3.04,4.64-7.2,4.64-11.36S422.24,439.68,419.36,436.64z" data-original="#000000" className="active-path" data-old_color="#000000" fill="#FFFFFF"/>
	</g>
</g><g>
	<g>
		<path d="M463.424,0H48.176C22.512,0,0,22.32,0,47.76v291.696C0,364.432,21.152,384,48.176,384H320c8.848,0,16-7.168,16-16    c0-8.832-7.152-16-16-16H48.176C40.384,352,32,347.2,32,339.456V47.76C32,39.808,40.016,32,48.176,32h415.248    C471.648,32,480,39.952,480,47.76V208c0,8.832,7.152,16,16,16c8.848,0,16-7.168,16-16V47.76C512,22.32,489.296,0,463.424,0z" data-original="#000000" className="active-path" data-old_color="#000000" fill="#FFFFFF"/>
	</g>
</g><g>
	<g>
		<path d="M176,352c-8.848,0-16,7.168-16,16v64c0,8.832,7.152,16,16,16c8.848,0,16-7.168,16-16v-64C192,359.168,184.848,352,176,352    z" data-original="#000000" className="active-path" data-old_color="#000000" fill="#FFFFFF"/>
	</g>
</g><g>
	<g>
		<path d="M320,416H128c-8.848,0-16,7.168-16,16c0,8.832,7.152,16,16,16h192c8.848,0,16-7.168,16-16    C336,423.168,328.848,416,320,416z" data-original="#000000" className="active-path" data-old_color="#000000" fill="#FFFFFF"/>
	</g>
</g><g>
	<g>
		<path d="M320,288H16c-8.848,0-16,7.168-16,16c0,8.832,7.152,16,16,16h304c8.848,0,16-7.168,16-16C336,295.168,328.848,288,320,288    z" data-original="#000000" className="active-path" data-old_color="#000000" fill="#FFFFFF"/>
	</g>
</g><g>
	<g>
		<path d="M256,336c-8.848,0-16,7.168-16,16v16c0,8.832,7.152,16,16,16c8.848,0,16-7.168,16-16v-16C272,343.168,264.848,336,256,336    z" data-original="#000000" className="active-path" data-old_color="#000000" fill="#FFFFFF"/>
	</g>
</g></g> </svg>
