<svg id="Capa_1" enable-background="new 0 0 512 512" height="512" viewBox="0 0 512 512" width="512" 
    xmlns="http://www.w3.org/2000/svg">
    <g>
        <path d="m305.549 270.628c11.61-6.265 25.451-19.266 25.451-45.628 0-8.179-1.326-16.049-3.761-23.421 19.393-5.004 33.761-22.644 33.761-43.579 0-24.813-20.187-45-45-45-6.68 0-13.019 1.474-18.725 4.097-6.936-15.929-22.822-27.097-41.275-27.097s-34.339 11.168-41.275 27.097c-5.706-2.623-12.045-4.097-18.725-4.097-24.813 0-45 20.187-45 45 0 20.934 14.368 38.575 33.76 43.579-2.432 7.373-3.76 15.243-3.76 23.421 0 26.362 13.841 39.363 25.451 45.628 11.853 6.393 27.597 9.372 49.549 9.372s37.696-2.979 49.549-9.372zm10.451-127.628c8.271 0 15 6.729 15 15s-6.729 15-15 15-15-6.729-15-15 6.729-15 15-15zm-60-23c8.271 0 15 6.729 15 15s-6.729 15-15 15-15-6.729-15-15 6.729-15 15-15zm-60 23c8.271 0 15 6.729 15 15s-6.729 15-15 15-15-6.729-15-15 6.729-15 15-15zm15 82c0-24.813 20.187-45 45-45s45 20.187 45 45c0 13.175-3.441 25-45 25s-45-11.825-45-25z"/>
        <path d="m390.097 381.874c-2.156-5.928-7.789-9.874-14.097-9.874h-66.724l6.878-12.036c34.713-11.962 65.751-34.531 87.898-64.036 24.172-32.201 36.948-70.559 36.948-110.928 0-102.01-82.99-185-185-185s-185 82.99-185 185c0 40.369 12.776 78.727 36.948 110.928 22.147 29.505 53.186 52.074 87.898 64.036l6.878 12.036h-66.724c-6.308 0-11.941 3.946-14.097 9.874l-40 110c-1.673 4.599-.996 9.724 1.811 13.731 2.807 4.008 7.392 6.395 12.286 6.395h320c4.894 0 9.479-2.387 12.286-6.395s3.483-9.133 1.811-13.731zm-289.097-196.874c0-85.467 69.533-155 155-155s155 69.533 155 155c0 68.508-43.967 128.049-109.406 148.161-3.645 1.12-6.726 3.586-8.617 6.896l-36.977 64.71-36.977-64.71c-1.892-3.31-4.973-5.775-8.617-6.896-65.439-20.112-109.406-79.653-109.406-148.161zm16.415 297 29.092-80h73.36l23.11 40.442c2.67 4.673 7.641 7.558 13.023 7.558s10.354-2.885 13.023-7.558l23.11-40.442h73.36l29.092 80z"/>
    </g>
</svg>